<?xml version="1.0" encoding="UTF-8"?>
<svg version="1.1" xmlns="http://www.w3.org/2000/svg" width="512" height="512">
<path d="M0 0 C1.45341293 0.00323273 1.45341293 0.00323273 2.93618774 0.00653076 C58.53537583 0.20476576 112.43432922 17.9358527 156.4375 52.3125 C157.40945313 53.07175781 158.38140625 53.83101562 159.3828125 54.61328125 C174.76241644 66.94763598 189.31515196 80.74854501 201.4375 96.3125 C202.58412109 97.71628906 202.58412109 97.71628906 203.75390625 99.1484375 C227.00995898 128.19050656 243.22853386 163.69537049 251.25 199.9375 C251.43264404 200.75702148 251.61528809 201.57654297 251.8034668 202.42089844 C255.46702825 220.13459882 256.96457952 237.68819569 256.8125 255.75 C256.80601944 257.22161591 256.80601944 257.22161591 256.79940796 258.72296143 C256.72523759 273.11435419 256.21848053 287.15628729 253.4375 301.3125 C253.27652832 302.20807617 253.11555664 303.10365234 252.94970703 304.02636719 C245.06047508 347.63313051 225.37100867 388.77106217 196.4375 422.3125 C195.80328125 423.05757813 195.1690625 423.80265625 194.515625 424.5703125 C182.70448485 438.07529833 169.95389772 450.74668743 155.4375 461.3125 C154.28755169 462.16899066 153.13781411 463.02576433 151.98828125 463.8828125 C143.79660474 469.9234414 135.28104922 475.28255071 126.4375 480.3125 C125.80569824 480.67698242 125.17389648 481.04146484 124.52294922 481.41699219 C98.49416464 496.31500327 69.07611377 505.96041257 39.4375 510.3125 C38.23504639 510.48910156 37.03259277 510.66570312 35.79370117 510.84765625 C24.07743596 512.45161689 12.43834274 512.71324553 0.625 512.6875 C-0.36183777 512.68662384 -1.34867554 512.68574768 -2.36541748 512.68484497 C-67.31969852 512.49532667 -129.73321624 487.41579016 -176.5625 442.3125 C-177.22185547 441.68037598 -177.88121094 441.04825195 -178.56054688 440.39697266 C-188.04880305 431.25252521 -196.7887044 421.95515991 -204.5625 411.3125 C-205.42056152 410.16144983 -206.27863451 409.01040823 -207.13671875 407.859375 C-213.17486829 399.66819386 -218.53345521 391.15445895 -223.5625 382.3125 C-223.92698242 381.68069824 -224.29146484 381.04889648 -224.66699219 380.39794922 C-239.59723018 354.31285999 -249.07635054 324.97664886 -253.5625 295.3125 C-253.82740234 293.62882324 -253.82740234 293.62882324 -254.09765625 291.91113281 C-255.7545586 280.29802257 -255.96123513 268.78070055 -255.9375 257.0625 C-255.93695618 256.05048523 -255.93641235 255.03847046 -255.93585205 253.99578857 C-255.8951051 237.46132605 -254.97136907 221.54185136 -251.5625 205.3125 C-251.35351074 204.29720215 -251.14452148 203.2819043 -250.92919922 202.23583984 C-242.15130189 160.92383315 -223.14863066 122.2919774 -195.5625 90.3125 C-194.92828125 89.56742187 -194.2940625 88.82234375 -193.640625 88.0546875 C-181.82948485 74.54970167 -169.07889772 61.87831257 -154.5625 51.3125 C-153.41255169 50.45600934 -152.26281411 49.59923567 -151.11328125 48.7421875 C-142.92160474 42.7015586 -134.40604922 37.34244929 -125.5625 32.3125 C-124.93069824 31.94801758 -124.29889648 31.58353516 -123.64794922 31.20800781 C-97.61870909 16.30973599 -68.20132148 6.66564734 -38.5625 2.3125 C-36.75446899 2.04651001 -36.75446899 2.04651001 -34.90991211 1.77514648 C-23.27388483 0.17985199 -11.73175476 -0.04703114 0 0 Z " fill="#FED140" transform="translate(255.5625,-0.31250000000000006)"/>
<path d="M0 0 C1.45341293 0.00323273 1.45341293 0.00323273 2.93618774 0.00653076 C58.53537583 0.20476576 112.43432922 17.9358527 156.4375 52.3125 C157.40945313 53.07175781 158.38140625 53.83101562 159.3828125 54.61328125 C174.76241644 66.94763598 189.31515196 80.74854501 201.4375 96.3125 C202.58412109 97.71628906 202.58412109 97.71628906 203.75390625 99.1484375 C227.00995898 128.19050656 243.22853386 163.69537049 251.25 199.9375 C251.43264404 200.75702148 251.61528809 201.57654297 251.8034668 202.42089844 C255.46702825 220.13459882 256.96457952 237.68819569 256.8125 255.75 C256.80601944 257.22161591 256.80601944 257.22161591 256.79940796 258.72296143 C256.72523759 273.11435419 256.21848053 287.15628729 253.4375 301.3125 C253.27652832 302.20807617 253.11555664 303.10365234 252.94970703 304.02636719 C245.06047508 347.63313051 225.37100867 388.77106217 196.4375 422.3125 C195.80328125 423.05757813 195.1690625 423.80265625 194.515625 424.5703125 C182.70448485 438.07529833 169.95389772 450.74668743 155.4375 461.3125 C154.28755169 462.16899066 153.13781411 463.02576433 151.98828125 463.8828125 C143.79660474 469.9234414 135.28104922 475.28255071 126.4375 480.3125 C125.80569824 480.67698242 125.17389648 481.04146484 124.52294922 481.41699219 C98.49416464 496.31500327 69.07611377 505.96041257 39.4375 510.3125 C38.23504639 510.48910156 37.03259277 510.66570312 35.79370117 510.84765625 C24.07743596 512.45161689 12.43834274 512.71324553 0.625 512.6875 C-0.36183777 512.68662384 -1.34867554 512.68574768 -2.36541748 512.68484497 C-67.31969852 512.49532667 -129.73321624 487.41579016 -176.5625 442.3125 C-177.22185547 441.68037598 -177.88121094 441.04825195 -178.56054688 440.39697266 C-188.04880305 431.25252521 -196.7887044 421.95515991 -204.5625 411.3125 C-205.42056152 410.16144983 -206.27863451 409.01040823 -207.13671875 407.859375 C-213.17486829 399.66819386 -218.53345521 391.15445895 -223.5625 382.3125 C-223.92698242 381.68069824 -224.29146484 381.04889648 -224.66699219 380.39794922 C-239.59723018 354.31285999 -249.07635054 324.97664886 -253.5625 295.3125 C-253.82740234 293.62882324 -253.82740234 293.62882324 -254.09765625 291.91113281 C-255.7545586 280.29802257 -255.96123513 268.78070055 -255.9375 257.0625 C-255.93695618 256.05048523 -255.93641235 255.03847046 -255.93585205 253.99578857 C-255.8951051 237.46132605 -254.97136907 221.54185136 -251.5625 205.3125 C-251.35351074 204.29720215 -251.14452148 203.2819043 -250.92919922 202.23583984 C-242.15130189 160.92383315 -223.14863066 122.2919774 -195.5625 90.3125 C-194.92828125 89.56742187 -194.2940625 88.82234375 -193.640625 88.0546875 C-181.82948485 74.54970167 -169.07889772 61.87831257 -154.5625 51.3125 C-153.41255169 50.45600934 -152.26281411 49.59923567 -151.11328125 48.7421875 C-142.92160474 42.7015586 -134.40604922 37.34244929 -125.5625 32.3125 C-124.93069824 31.94801758 -124.29889648 31.58353516 -123.64794922 31.20800781 C-97.61870909 16.30973599 -68.20132148 6.66564734 -38.5625 2.3125 C-36.75446899 2.04651001 -36.75446899 2.04651001 -34.90991211 1.77514648 C-23.27388483 0.17985199 -11.73175476 -0.04703114 0 0 Z M-43.5625 25.3125 C-44.7009864 25.5298027 -44.7009864 25.5298027 -45.86247253 25.75149536 C-85.09665078 33.25530422 -121.29829331 51.4377584 -151.5625 77.3125 C-152.33464844 77.9725 -153.10679687 78.6325 -153.90234375 79.3125 C-167.6825444 91.41889924 -179.95061882 104.34491582 -190.5625 119.3125 C-191.01318848 119.94510742 -191.46387695 120.57771484 -191.92822266 121.22949219 C-210.4088733 147.41787599 -222.74285917 176.6136577 -229.875 207.8125 C-230.02243652 208.45678955 -230.16987305 209.1010791 -230.32177734 209.76489258 C-230.78564514 211.94093828 -231.18363617 214.1199587 -231.5625 216.3125 C-231.8263147 217.81671509 -231.8263147 217.81671509 -232.09545898 219.35131836 C-233.9251515 231.16442943 -234.00250195 242.94353877 -234 254.875 C-234.0010675 255.95598969 -234.00213501 257.03697937 -234.00323486 258.15072632 C-233.96772615 283.10758429 -230.93958833 306.67902959 -222.5625 330.3125 C-222.25940918 331.17665527 -221.95631836 332.04081055 -221.64404297 332.93115234 C-217.42054223 344.8286702 -212.54797418 356.19983543 -206.5625 367.3125 C-206.21074707 367.97588379 -205.85899414 368.63926758 -205.49658203 369.32275391 C-189.95718366 398.50888684 -167.16255433 424.69938324 -140.5625 444.3125 C-139.99708496 444.73869629 -139.43166992 445.16489258 -138.84912109 445.60400391 C-129.86807546 452.37243949 -120.49731482 458.05614984 -110.5625 463.3125 C-109.92086914 463.65522949 -109.27923828 463.99795898 -108.61816406 464.35107422 C-54.41123198 493.1063513 8.91365288 499.0916088 67.796875 481.78515625 C104.59271882 470.35023532 136.56916488 450.73103734 164.4375 424.3125 C164.93926758 423.83941406 165.44103516 423.36632812 165.95800781 422.87890625 C173.95511632 415.28808171 180.86785468 407.15868292 187.4375 398.3125 C187.86804688 397.73741699 188.29859375 397.16233398 188.7421875 396.56982422 C207.34911263 371.59848493 221.21662729 343.19290735 228.6875 312.9375 C229.03917236 311.52307617 229.03917236 311.52307617 229.39794922 310.08007812 C233.32359924 293.25022749 234.94169114 276.53941795 234.82861328 259.28344727 C234.8125235 256.37924133 234.82858369 253.47643019 234.84765625 250.57226562 C234.90624505 196.79850468 214.24200931 145.02134571 179.4375 104.3125 C178.7775 103.54035156 178.1175 102.76820312 177.4375 101.97265625 C165.33110076 88.1924556 152.40508418 75.92438118 137.4375 65.3125 C136.80489258 64.86181152 136.17228516 64.41112305 135.52050781 63.94677734 C106.40606813 43.40126402 73.41775793 30.51808201 38.4375 24.3125 C37.4477417 24.12341064 36.4579834 23.93432129 35.43823242 23.73950195 C24.82581817 21.93499767 14.22864755 21.97488899 3.48999023 21.99682617 C0.27357761 21.9999769 -2.9419041 21.97648545 -6.15820312 21.95117188 C-18.91868142 21.91235752 -31.0456345 22.8377823 -43.5625 25.3125 Z " fill="#010100" transform="translate(255.5625,-0.31250000000000006)"/>
<path d="M0 0 C0.13462646 0.53665283 0.26925293 1.07330566 0.40795898 1.6262207 C5.36312074 21.00051235 12.33169311 38.36898387 25 54 C26.16982422 55.44439453 26.16982422 55.44439453 27.36328125 56.91796875 C40.18979145 71.80175882 57.29414658 83.04499457 75.625 89.9375 C76.33938232 90.20788086 77.05376465 90.47826172 77.78979492 90.75683594 C90.29126357 95.16172988 102.69478808 96.53420418 115.875 96.375 C116.92315887 96.36752243 116.92315887 96.36752243 117.99249268 96.3598938 C146.51532111 96.12181694 171.84236933 87.15173134 194 69 C194.85078125 68.31421875 195.7015625 67.6284375 196.578125 66.921875 C216.97681606 49.60223165 227.49802178 25.37497694 234 0 C236.5627992 0.31018604 239.1252211 0.62306891 241.6875 0.9375 C242.40873047 1.02451172 243.12996094 1.11152344 243.87304688 1.20117188 C247.62010584 1.66313805 251.30792911 2.19167679 255 3 C253.37099475 27.02782737 240.3326632 50.87279826 225 69 C224.56429687 69.51546387 224.12859375 70.03092773 223.6796875 70.56201172 C209.42734761 87.19495078 191.89588946 99.0953763 172 108 C171.34 108 170.68 108 170 108 C170.0199855 108.96481041 170.0199855 108.96481041 170.04037476 109.94911194 C170.17433007 116.71497354 170.2641083 123.48045157 170.32958984 130.24731445 C170.35954549 132.76407196 170.40032498 135.28072704 170.45263672 137.79711914 C170.88319945 159.05931971 168.96302558 173.68431088 154.203125 189.984375 C143.27242747 200.54137347 129.19854737 204.45199238 114.46557617 204.43383789 C106.32796319 204.27195884 100.21592068 202.94323543 93 199 C92.03964844 198.49210938 91.07929688 197.98421875 90.08984375 197.4609375 C78.00856727 190.44814703 71.36813116 180.550423 66 168 C65.46741577 166.79657959 65.46741577 166.79657959 64.92407227 165.56884766 C63.54773537 160.25331456 63.75562062 155.06895292 63.8046875 149.6015625 C63.8075174 148.41146576 63.81034729 147.22136902 63.81326294 145.99520874 C63.82443183 142.20503563 63.84953083 138.41510134 63.875 134.625 C63.88503403 132.05078467 63.89415915 129.47656562 63.90234375 126.90234375 C63.92436043 120.60148142 63.9578055 114.30075778 64 108 C63.38312317 107.79839264 62.76624634 107.59678528 62.13067627 107.3890686 C60.91598663 106.98886002 60.91598663 106.98886002 59.67675781 106.58056641 C58.47300507 106.18534286 58.47300507 106.18534286 57.24493408 105.78213501 C28.21592835 95.66842973 3.25659851 67.06075841 -10.078125 40.3359375 C-12.59394799 34.91462663 -14.52334445 29.28102647 -16.4375 23.625 C-16.77998779 22.614375 -17.12247559 21.60375 -17.4753418 20.5625 C-19.3840399 14.66474444 -20.54546311 9.18426253 -21 3 C-18.25071558 2.49576443 -15.50068857 1.99646574 -12.75 1.5 C-11.97269531 1.35691406 -11.19539063 1.21382813 -10.39453125 1.06640625 C-9.64042969 0.93105469 -8.88632813 0.79570312 -8.109375 0.65625 C-7.07248535 0.46772461 -7.07248535 0.46772461 -6.01464844 0.27539062 C-4 0 -4 0 0 0 Z " fill="#020100" transform="translate(139,265)"/>
<path d="M0 0 C1.86098473 2.7914771 2.57816011 4.58144914 3.4375 7.75390625 C3.82035156 9.1605957 3.82035156 9.1605957 4.2109375 10.59570312 C4.47132813 11.57474609 4.73171875 12.55378906 5 13.5625 C5.26039063 14.51447266 5.52078125 15.46644531 5.7890625 16.44726562 C10.98649791 35.72765104 12.41344868 54.59802698 12.375 74.5 C12.37478851 75.51335419 12.37457703 76.52670837 12.37435913 77.57077026 C12.34202049 93.11431304 11.43286934 107.79688393 8 123 C7.65447743 124.74679047 7.31201944 126.49418996 6.97265625 128.2421875 C1.07381562 157.07435861 -12.13301223 184.99113453 -29 209 C-29.47018555 209.67224609 -29.94037109 210.34449219 -30.42480469 211.03710938 C-37.34772269 220.83324927 -44.99611204 229.72274335 -53.35986328 238.31298828 C-54.86613162 239.86230568 -56.3546869 241.42658294 -57.83984375 242.99609375 C-64.69095445 250.08865328 -72.11151528 256.12335801 -80 262 C-80.8647998 262.64799561 -80.8647998 262.64799561 -81.74707031 263.30908203 C-101.26473754 277.85090129 -122.26735649 288.42780891 -145 297 C-145.64759277 297.24878906 -146.29518555 297.49757813 -146.96240234 297.75390625 C-202.08212118 318.69491205 -266.50668049 312.85848265 -319.61035156 289.1484375 C-356.73235901 271.97492771 -391.50512902 244.38871081 -414 210 C-410.6432096 211.46670572 -408.39114608 213.35390601 -405.75 215.875 C-388.48685142 231.6053217 -368.20989002 244.30864433 -347 254 C-346.22253418 254.3604541 -345.44506836 254.7209082 -344.64404297 255.09228516 C-319.79440709 266.52126721 -289.74264344 277.32508659 -262 275.6875 C-255.91955563 275.63547481 -253.03240346 276.70121935 -248.2890625 280.33203125 C-237.39702642 288.26871965 -223.94006318 288.63293001 -211 287 C-200.07106541 284.68968549 -189.86335672 278.32653355 -182.375 270.125 C-179.46052457 267.51731145 -177.37240075 267.19007538 -173.6015625 266.49609375 C-143.92757752 260.83754106 -114.27999246 242.74999393 -91 224 C-89.53046875 222.83791016 -89.53046875 222.83791016 -88.03125 221.65234375 C-82.32193405 217.08018551 -77.06340309 212.27389097 -72 207 C-67 202 -67 202 -65.15234375 200.29296875 C-39.61159473 176.05011623 -21.59938036 141.35742677 -10.74902344 108.2722168 C-10.25296033 106.76737348 -9.74591805 105.26610148 -9.22753906 103.76879883 C-1.0836259 80.12292103 1.26944711 55.5955647 1.25 30.75 C1.24940582 29.90897736 1.24881165 29.06795471 1.24819946 28.20144653 C1.22270171 18.75724153 1.00406853 9.40088347 0 0 Z " fill="#FDAE27" transform="translate(478,181)"/>
<path d="M0 0 C14.19 0 28.38 0 43 0 C43 28.05 43 56.1 43 85 C28.81 85 14.62 85 0 85 C0 56.95 0 28.9 0 0 Z " fill="#010100" transform="translate(320,128)"/>
<path d="M0 0 C6.93 0.99 13.86 1.98 21 3 C21 13.89 21 24.78 21 36 C28.26 36 35.52 36 43 36 C43 25.11 43 14.22 43 3 C57.625 0.75 57.625 0.75 64 0 C64.12473576 5.76164081 64.21486943 11.5224748 64.2746582 17.28515625 C64.29961363 19.24037387 64.3335907 21.19550004 64.37719727 23.15039062 C64.66824402 36.54538971 64.71384791 49.03534045 54.9453125 59.46875 C45.90087762 66.5880642 36.26022907 68.93070578 25 68 C21.6699844 67.11570147 18.93599958 65.78615944 16 64 C14.95199219 63.38125 14.95199219 63.38125 13.8828125 62.75 C6.53253006 57.86830298 2.28286246 50.42014041 0 42 C-0.26304862 38.73923068 -0.23333085 35.49610353 -0.1953125 32.2265625 C-0.1924826 31.3028183 -0.18965271 30.3790741 -0.18673706 29.42733765 C-0.17559179 26.49309024 -0.15049765 23.5591543 -0.125 20.625 C-0.11496289 18.62891068 -0.10583832 16.63281654 -0.09765625 14.63671875 C-0.07737728 9.75759757 -0.03821785 4.87914517 0 0 Z " fill="#ED4035" transform="translate(224,380)"/>
<path d="M0 0 C13.33429556 6.2627808 26.60911657 12.64043296 39.81201172 19.17602539 C41.87629979 20.19467735 43.94343115 21.20758509 46.01318359 22.21508789 C49.05467257 23.69636957 52.08663104 25.19572166 55.1171875 26.69921875 C56.03797089 27.14311447 56.95875427 27.58701019 57.90744019 28.0443573 C63.1941217 30.696001 66.66396672 33.07001301 70 38 C70.41015625 40.4140625 70.41015625 40.4140625 70.0625 42.625 C69.92521484 43.72714844 69.92521484 43.72714844 69.78515625 44.8515625 C68.1298246 49.38107697 64.26583624 51.62038212 60.140625 53.734375 C59.19840088 54.22164062 58.25617676 54.70890625 57.28540039 55.2109375 C56.28371826 55.71882813 55.28203613 56.22671875 54.25 56.75 C53.21157959 57.28367188 52.17315918 57.81734375 51.10327148 58.3671875 C48.07343699 59.92068419 45.03818899 61.46291726 42 63 C41.25572754 63.37705078 40.51145508 63.75410156 39.74462891 64.14257812 C36.61579535 65.72362529 33.47970964 67.28873328 30.3359375 68.83984375 C26.80168109 70.58810887 23.29488114 72.38683223 19.7890625 74.19140625 C18.69972412 74.74763672 17.61038574 75.30386719 16.48803711 75.87695312 C14.3156044 76.98638988 12.14701513 78.10339043 9.98266602 79.22851562 C8.99194092 79.73189453 8.00121582 80.23527344 6.98046875 80.75390625 C6.09254639 81.21095947 5.20462402 81.6680127 4.28979492 82.13891602 C2 83 2 83 -1 82 C-2.09082031 80.46533203 -2.09082031 80.46533203 -3.078125 78.5078125 C-3.43390625 77.80269531 -3.7896875 77.09757812 -4.15625 76.37109375 C-4.5171875 75.62988281 -4.878125 74.88867188 -5.25 74.125 C-5.62640625 73.39152344 -6.0028125 72.65804687 -6.390625 71.90234375 C-6.74125 71.19464844 -7.091875 70.48695313 -7.453125 69.7578125 C-7.77442383 69.1095752 -8.09572266 68.46133789 -8.42675781 67.79345703 C-9 66 -9 66 -8 63 C-6.28526306 61.84199524 -6.28526306 61.84199524 -4.03100586 60.73168945 C-2.76981178 60.10137566 -2.76981178 60.10137566 -1.48313904 59.45832825 C-0.11283287 58.79252998 -0.11283287 58.79252998 1.28515625 58.11328125 C2.68138466 57.4204731 2.68138466 57.4204731 4.1058197 56.71366882 C7.08682815 55.23718506 10.07448355 53.77474122 13.0625 52.3125 C15.08183254 51.31536863 17.10071891 50.31733317 19.11914062 49.31835938 C24.07429306 46.86838264 29.0349769 44.42990535 34 42 C23.32474141 36.34658834 12.6358888 30.74068261 1.8125 25.375 C0.22405273 24.58416016 0.22405273 24.58416016 -1.39648438 23.77734375 C-3.93003824 22.51629884 -6.46451772 21.25716171 -9 20 C-8.44882318 16.75418094 -7.73372834 14.11712315 -6.15234375 11.23046875 C-5.82999756 10.63387451 -5.50765137 10.03728027 -5.17553711 9.42260742 C-4.76698486 8.68502197 -4.35843262 7.94743652 -3.9375 7.1875 C-3.23465588 5.90560229 -2.5322944 4.62343988 -1.83032227 3.34106445 C-1.22631592 2.23851318 -0.62230957 1.13596191 0 0 Z " fill="#030301" transform="translate(154,129)"/>
</svg>
